<?xml version="1.0" encoding="UTF-8"?>
<!-- Creator: CorelDRAW -->
<svg xmlns="http://www.w3.org/2000/svg" xmlns:xlink="http://www.w3.org/1999/xlink" xmlns:xodm="http://www.corel.com/coreldraw/odm/2003" xml:space="preserve" width="48.7087mm" height="10.0128mm" version="1.1" style="shape-rendering:geometricPrecision; text-rendering:geometricPrecision; image-rendering:optimizeQuality; fill-rule:evenodd; clip-rule:evenodd" viewBox="0 0 3305.14 679.42">
 <defs>
  <style type="text/css">
   <![CDATA[
    .fil0 {fill:#FEFEFE;fill-rule:nonzero}
   ]]>
  </style>
 </defs>
 <g id="Camada_x0020_1">
  <metadata id="CorelCorpID_0Corel-Layer"></metadata>
  <path class="fil0" d="M334.59 660.82c160.21,59.56 200.76,-33.37 295.6,-144.48 85.46,-99.82 171.25,-160.36 77,-297.6 -72.31,-105.24 -208.97,-159.09 -326.52,-197.19 -163.33,-53.06 -250.5,-8.5 -332.78,138.37 -73.05,130.89 -65.08,240.04 41.53,349.1 66.5,67.77 158.06,115.8 245.12,151.85l0.05 0 0 -0.05zm483.01 -58.82l33.17 -4.69 0 -388.62 -33.17 -4.79 0 -9.33 80.37 0 0 49.59c7.91,-17.05 18.57,-30.34 31.86,-39.97 13.48,-9.68 29.46,-14.46 48.08,-14.46 22.38,0 42.12,5.22 59.12,15.88 17.05,10.46 30.2,25.36 39.67,44.36 9.48,19.16 14.17,41.38 14.17,66.88 0,25.55 -4.69,47.93 -14.17,66.88 -9.48,19.16 -22.72,33.91 -39.67,44.21 -17.05,10.46 -36.74,15.59 -59.12,15.59 -18.57,0 -34.59,-4.79 -48.08,-14.32 -13.34,-9.68 -23.94,-22.82 -31.86,-39.57l0 207.55 44.51 4.69 0 9.48 -124.93 0 0 -9.48 0 -0.05 0.04 0.16zm155.57 -170.13c43.83,0 65.77,-30.49 65.77,-91.32l0 -47.2c0,-61.22 -21.99,-91.75 -65.77,-91.75 -13.78,0 -26.38,4 -37.72,12.07 -11.33,7.97 -20.42,18.71 -27.07,32.29 -6.5,13.58 -10.06,28.19 -10.35,43.92l0 50.57c0,16.17 3.27,31.17 9.68,45.25 6.5,14.03 15.44,25.21 27.07,33.47 11.48,8.35 24.23,12.61 38.41,12.61l0 0.05 -0.01 0.05zm228.95 11.77c-20.23,0 -36.74,-5.22 -49.79,-15.74 -12.9,-10.65 -19.25,-26.38 -19.25,-47.1 0,-29.66 12.51,-50.76 37.28,-63.28 24.96,-12.32 53.69,-18.57 86.62,-18.57l31.61 0 0 -36.45c0,-16.41 -1.86,-29.02 -5.42,-38.16 -3.71,-8.94 -9.24,-15.29 -16.86,-18.81 -7.53,-3.71 -17.74,-5.42 -30.64,-5.42 -14.9,0 -25.94,2.84 -33.17,8.7 -7.18,5.77 -10.9,13.58 -10.9,23.4 0,9.24 4.35,15.19 13.34,18.03 0,7.91 -2.98,14.9 -9.04,20.87 -5.96,5.96 -13.05,8.94 -21.3,8.94 -8.79,0 -15.88,-2.4 -21.3,-7.18 -5.42,-4.98 -8.06,-12.51 -8.06,-22.52 0,-18.27 9.24,-32.93 27.51,-43.92 18.27,-11.09 41.09,-16.61 68.59,-16.61 62.93,0 94.59,27.51 94.59,82.38l0 135.14c0,6.93 1.42,12.32 4.44,15.88 2.98,3.71 7.38,5.52 13.05,5.52 5.42,0 9.68,-1.86 12.75,-5.52 3.13,-3.57 4.69,-8.5 4.69,-14.9l9.92 0c0,11.09 -3.57,19.69 -10.65,26.09 -7.08,6.2 -16.86,9.33 -29.46,9.33 -14.46,0 -26.78,-4.11 -36.74,-12.51 -9.92,-8.35 -15,-21.4 -15.34,-38.99 -7.53,16.03 -19.16,28.63 -34.74,37.86 -15.59,9.04 -32.93,13.58 -51.74,13.58l-0.05 -0.05 0.04 -0.01zm25.94 -20.86c8.5,0 17.3,-2.4 26.19,-7.53 9.04,-4.98 16.76,-12.32 22.96,-21.99 6.2,-9.68 10.06,-21.3 11.33,-34.74l0 -49.15 -31.61 0c-25.94,0 -45.25,5.86 -57.95,17.3 -12.75,11.48 -19.16,27.65 -19.16,48.52 0,17.3 4.11,29.66 12.32,36.84 8.06,7.28 20.13,10.75 35.86,10.75l0.06 0zm-42.5 -262.42l-9.92 -7.08 56.73 -73.29 18.47 0 56.73 73.29 -9.92 7.08 -56.18 -44.36 -55.89 44.36 0.05 0 -0.05 0zm202.32 269.07l33.17 -4.69 0 -216.64 -33.17 -4.69 0 -9.48 80.37 0 0 43.54c11.48,-14.76 24.23,-26.53 38.6,-35.03 14.32,-8.5 29.9,-12.75 46.66,-12.75 19.16,0 34.88,4.25 47.05,12.61 12.07,8.26 19.69,20.87 22.82,37.57 11.48,-15.44 24.38,-27.65 38.84,-36.74 14.46,-8.94 30.44,-13.48 47.74,-13.48 22.43,0 39.87,5.67 52.18,16.86 12.51,11.19 18.71,28.04 18.71,50.76l0 167.44 33.17 4.69 0 9.48 -108.91 0 0 -9.48 28.49 -4.69 0 -166.46c0,-16.71 -3.13,-29.46 -9.04,-38.26 -5.96,-8.94 -15.74,-13.34 -29.36,-13.34 -12.9,0 -25.36,4.44 -37.57,13.34 -12.07,8.79 -23.06,20.13 -32.93,34l0 170.71 28.49 4.69 0 9.48 -104.61 0 0 -9.48 28.49 -4.69 0 -166.46c0,-16.71 -3.13,-29.46 -9.04,-38.26 -5.96,-8.94 -15.74,-13.34 -29.36,-13.34 -12.9,0 -25.36,4.44 -37.57,13.34 -12.07,8.79 -23.06,20.13 -32.93,34l0 170.71 28.49 4.69 0 9.48 -108.91 0 0 -9.48 0 0.05 0.14 0.01zm579.9 14.22c-23.4,0 -44.51,-5.22 -63.37,-15.74 -19.01,-10.65 -33.91,-25.55 -44.9,-44.8 -11.09,-19.16 -16.61,-41.43 -16.61,-66.64 0,-25.21 5.42,-47.39 16.32,-66.5 10.9,-19.01 25.55,-33.91 43.92,-44.36 18.47,-10.65 38.99,-15.88 61.86,-15.88 19.89,0 37.57,4.44 53.31,13.34 15.88,8.79 28.04,21.01 36.99,36.55 8.79,15.59 13.34,33.47 13.58,53.74l-173.93 0 0 46.76c0,27.65 6.2,50.23 18.71,67.37 12.51,17.15 30.49,25.8 54.13,25.8 21.65,0 40.99,-6.11 57.6,-18.47 16.71,-12.32 27.07,-28.19 30.78,-47.74l10.9 0c-4.44,23.25 -15.59,41.97 -33.62,55.7 -18.03,13.92 -39.87,20.87 -65.66,20.87l-0.05 -0.05 0.03 0.05zm49.05 -162.21c0,-27.36 -4.25,-47.74 -12.75,-61.22 -8.5,-13.34 -21.65,-19.98 -39.67,-19.98 -21.11,0 -37.43,7.38 -49.15,22.09 -11.63,14.9 -18.27,34.59 -19.89,59.12l121.51 0 -0.04 -0.01zm80.37 157.52l0 -9.48 35.57 -4.69 0 -349.92 -35.57 -4.79 0 -9.33 82.82 0 0 364.1 33.17 4.69 0 9.48 -115.99 0 0 -0.05 0 -0.01zm216.64 4.69c-20.13,0 -36.74,-5.22 -49.59,-15.74 -12.9,-10.65 -19.45,-26.38 -19.45,-47.1 0,-29.66 12.51,-50.76 37.43,-63.28 24.82,-12.32 53.69,-18.57 86.53,-18.57l31.61 0 0 -36.45c0,-16.41 -1.71,-29.02 -5.42,-38.16 -3.71,-8.94 -9.24,-15.29 -16.76,-18.81 -7.62,-3.71 -17.83,-5.42 -30.78,-5.42 -14.9,0 -25.94,2.84 -33.17,8.7 -7.28,5.77 -10.75,13.58 -10.75,23.4 0,9.24 4.44,15.19 13.19,18.03 0,7.91 -2.98,14.9 -8.94,20.87 -6.11,5.96 -13.19,8.94 -21.3,8.94 -8.94,0 -16.03,-2.4 -21.4,-7.18 -5.22,-4.98 -7.91,-12.51 -7.91,-22.52 0,-18.27 9.04,-32.93 27.36,-43.92 18.27,-11.09 41.09,-16.61 68.59,-16.61 63.08,0 94.59,27.51 94.59,82.38l0 135.14c0,6.93 1.42,12.32 4.55,15.88 2.98,3.71 7.28,5.52 12.9,5.52 5.42,0 9.68,-1.86 12.75,-5.52 3.27,-3.57 4.79,-8.5 4.79,-14.9l9.92 0c0,11.09 -3.57,19.69 -10.65,26.09 -7.08,6.2 -17.05,9.33 -29.66,9.33 -14.46,0 -26.63,-4.11 -36.55,-12.51 -9.92,-8.35 -15,-21.4 -15.44,-38.99 -7.53,16.03 -19.16,28.63 -34.79,37.86 -15.59,9.04 -32.93,13.58 -51.74,13.58l0.05 -0.05 0.04 -0.01zm25.94 -20.86c8.7,0 17.3,-2.4 26.38,-7.53 8.94,-4.98 16.61,-12.32 22.82,-21.99 6.4,-9.68 10.06,-21.3 11.33,-34.74l0 -49.15 -31.61 0c-25.8,0 -45.25,5.86 -57.95,17.3 -12.75,11.48 -19.16,27.65 -19.16,48.52 0,17.3 4.11,29.66 12.32,36.84 8.26,7.28 20.13,10.75 35.86,10.75l0.01 0zm331.46 195.19c-22.28,0 -42.26,-1.86 -60,-5.42l-11.63 -42.7c7.18,9.68 15.88,17.45 26.09,23.4 14.76,8.64 31.32,12.9 49.59,12.9 27.51,0 49.89,-8.35 67.18,-25.11 17.45,-16.86 26.09,-41.09 26.09,-72.61 0,-12.61 -1.86,-26.09 -5.67,-40.26l-19.89 -3.13c-15.34,-2.98 -27.36,-4.55 -36.21,-4.55 -14.61,0 -26.78,2.15 -36.45,6.64 -9.68,4.44 -14.46,11.48 -14.46,21.4 0,4.69 1.42,8.26 4.55,10.65 3.13,2.4 6.93,3.57 11.77,3.57 4.35,0 8.79,-1.13 13.19,-3.57 4.44,-2.4 7.62,-5.86 9.68,-10.21 8.26,1.95 14.46,5.52 18.57,10.46 4.25,4.79 6.4,10.75 6.4,17.59 0,8.06 -2.93,15.19 -8.79,21.4 -5.96,6.11 -13.34,9.04 -22.28,9.04 -12.9,0 -23.5,-5.52 -32.05,-16.71 -8.5,-11.19 -12.75,-24.96 -12.75,-41.28 0,-13.34 3.27,-25.55 9.68,-36.74 6.5,-11.19 15.88,-20.13 28.38,-26.78 12.32,-6.55 26.97,-9.92 43.54,-9.92 16.32,0 35.33,1.71 56.97,5.08 17.05,3.13 31.32,4.69 42.85,4.69 16.03,0 28.78,-2.54 38.41,-7.53 9.77,-4.79 14.61,-11.77 14.61,-20.57 0,-4.79 -1.42,-8.35 -4.44,-10.9 -2.84,-2.54 -6.64,-3.81 -11.48,-3.81 -4.69,0 -9.24,1.13 -13.48,3.57 -4.25,2.4 -7.38,5.96 -9.33,10.65 -8.5,-1.95 -14.9,-5.52 -18.81,-10.35 -4.11,-4.98 -6.11,-10.75 -6.11,-17.59 0,-8.26 2.93,-15.29 8.79,-21.4 5.96,-6.11 13.48,-9.24 22.28,-9.24 12.9,0 23.25,5.08 31.32,15 7.91,10.06 11.87,22.82 11.87,38.41 0,53.45 -25.36,80.13 -76.41,80.13 -14.61,0 -26.63,-0.73 -36.15,-2.15 2.69,13.58 4.11,25.94 4.11,37.18 0,35.03 -9.92,62.24 -29.46,81.54 -19.69,19.45 -46.32,29.07 -80.13,29.07l-0.05 0.05 0.13 0.09zm-115.99 -209.84c24.82,-15.88 55.99,-24.67 93.57,-26.53l0 -1.56c-42.12,-5.42 -73.14,-15.44 -93.42,-30.34 -20.13,-14.76 -30.34,-38.26 -30.34,-70.45 0,-28.49 11.48,-50.47 34.44,-65.91 22.96,-15.44 54.87,-23.25 96.01,-23.25 27.51,0 50.47,6.64 69.04,19.89 18.47,13.34 27.8,30.88 27.8,53.06 0,11.19 -3.13,19.98 -9.48,26.24 -6.2,6.2 -13.48,9.33 -21.54,9.33 -8.5,0 -15.74,-2.54 -21.4,-7.53 -5.77,-5.13 -8.64,-12.61 -8.64,-22.52 14.17,-6.4 21.3,-17.05 21.3,-32.05 0,-10.46 -4.55,-18.81 -13.58,-25.21 -9.24,-6.2 -21.84,-9.33 -37.72,-9.33 -23.06,0 -41.53,6.84 -55.31,20.42 -13.78,13.48 -20.67,31.61 -20.67,54.47 0,32.59 9.68,56.53 28.78,72.01 19.25,15.44 47.39,24.23 84.38,26.24l0 11.19c-40.12,2.4 -70.21,12.9 -90.44,31.61 -18.81,17.45 -28.93,41.53 -30.2,72.31l-22.38 -81.94 -0.09 -0.09 -0.09 -0.08zm-2034.96 162.94c-7.38,4 -13.05,10.21 -20.57,13.92 -66.21,32.05 -141.79,45.98 -213.07,22.72 -15.88,-5.22 -30.34,-11.48 -44.21,-18.47l-2.84 -0.88 0 -0.73c-69.48,-36.99 -113.84,-97.96 -133.14,-165.78 -1.27,-4 -2.69,-7.91 -3.81,-12.07 -74.7,-245.71 199.05,-446.62 409.63,-313.08 1.95,1.27 3.81,2.4 5.86,3.71 0.29,0.29 0.73,0.54 0.98,0.73 11.19,7.53 21.84,15.74 31.76,24.67 1.42,1.42 2.84,2.54 4.11,3.81l0.09 0.15c20.87,19.45 37.97,41.28 51.45,64.69 67.77,115.99 36.99,308.64 -86.19,376.6l-0.05 -0.05 0.01 0.05zm103.24 -154.59c-9.68,25.65 -19.01,48.91 -31.76,69.63 -17.74,28.63 -40.85,52.62 -72.41,74.17 -0.98,4.79 -1.27,6.5 -3.71,10.06 34.74,-20.87 60.24,-52.18 78.71,-82.38 16.61,-27.36 27.51,-53.45 29.22,-71.43l0 -0.05 -0.05 0zm-109.29 147.31c-11.09,7.08 -22.72,13.48 -34.59,19.01 1.42,0.29 3.13,0.29 4.79,0.29 14.9,0 24.82,-4.98 29.8,-19.25l0 -0.05zm-43.24 22.82c-45.54,19.16 -97.13,25.8 -149.99,16.61l0 5.86c58.38,11.48 116.97,2.84 167.88,-22.09 -1.95,0.15 -3.81,0.29 -5.96,0.29 -4.11,0 -8.06,-0.29 -11.87,-0.54l-0.05 -0.05 -0.01 -0.09zm-5.52 -0.88c-1.42,-0.15 -2.54,-0.44 -4,-0.73 -0.73,0.44 -1.71,0.73 -2.54,1.13 0.73,-0.44 1.71,-0.73 2.54,-1.13 -8.5,-1.86 -15.34,-4.79 -20.67,-9.04 -9.24,-7.62 -13.92,-17.74 -13.92,-30.44 0,-12.07 4.55,-21.54 13.34,-28.38 8.94,-6.64 20.67,-10.35 35.13,-11.09l0 -0.54c-14.46,-1.86 -25.11,-5.22 -32.2,-10.35 -6.93,-5.08 -10.35,-13.19 -10.35,-24.14 0,-9.92 3.81,-17.3 11.77,-22.72 7.91,-5.22 18.81,-8.06 33.03,-8.06 9.33,0 17.3,2.29 23.5,6.93 6.4,4.55 9.48,10.65 9.48,18.18 0,3.81 -0.98,6.93 -3.13,9.04 -2.15,2.15 -4.69,3.13 -7.53,3.13 -2.84,0 -5.22,-0.88 -7.28,-2.54 -1.95,-1.86 -3.13,-4.25 -3.13,-7.82 4.98,-2.15 7.38,-5.86 7.38,-10.9 0,-3.71 -1.56,-6.5 -4.69,-8.7 -3.13,-2.15 -7.53,-3.27 -13.05,-3.27 -7.82,0 -14.03,2.29 -18.71,7.08 -4.79,4.55 -7.28,10.75 -7.28,18.57 0,11.19 3.37,19.45 9.92,24.67 6.5,5.42 16.32,8.35 28.93,9.24l0 3.71c-13.78,0.88 -24.14,4.44 -31.07,10.75 -6.84,6.4 -10.35,15.59 -10.35,27.07 0,7.97 1.56,14.61 4.44,20.23 2.98,5.67 6.93,9.92 12.17,12.9 1.27,0.88 2.84,1.56 4.44,2.15 15,-6.5 29.8,-14.46 44.12,-23.94 0.29,-2.29 0.44,-4.79 0.44,-7.28 0,-4.35 -0.54,-8.94 -1.95,-13.78l-6.84 -1.13c-5.22,-0.98 -9.33,-1.56 -12.32,-1.56 -4.98,0 -9.04,0.88 -12.51,2.4 -3.27,1.42 -4.98,3.81 -4.98,7.18 0,1.71 0.44,2.84 1.42,3.71 1.13,0.73 2.54,1.13 4.11,1.13 1.56,0 3.13,-0.44 4.69,-1.13 1.42,-0.88 2.54,-1.95 3.13,-3.57 2.84,0.73 4.98,1.86 6.4,3.71 1.56,1.71 2.29,3.71 2.29,5.96 0,2.84 -0.98,5.22 -2.98,7.28 -2.15,2.15 -4.55,3.27 -7.62,3.27 -4.55,0 -8.26,-1.95 -11.09,-5.77 -2.84,-3.81 -4.44,-8.5 -4.44,-14.17 0,-4.55 1.13,-8.7 3.27,-12.61 2.29,-3.81 5.52,-6.84 9.77,-9.04 4.25,-2.29 9.24,-3.37 14.9,-3.37 5.67,0 12.17,0.44 19.59,1.71 5.86,1.13 10.75,1.56 14.76,1.56 5.52,0 9.92,-0.88 13.19,-2.4 3.27,-1.71 4.98,-4.11 4.98,-7.28 0,-1.56 -0.44,-2.84 -1.56,-3.71 -0.88,-0.88 -2.29,-1.27 -4,-1.27 -1.42,0 -2.98,0.44 -4.55,1.13 -1.56,0.88 -2.54,1.95 -3.13,3.71 -2.93,-0.54 -5.22,-1.86 -6.5,-3.57 -1.42,-1.71 -2.15,-3.71 -2.15,-5.96 0,-2.93 0.98,-5.42 3.13,-7.38 1.95,-2.15 4.55,-3.13 7.62,-3.13 4.44,0 7.82,1.56 10.65,5.08 2.69,3.37 4.11,7.82 4.11,13.19 0,9.68 -2.4,19.45 -11.48,24.23 -8.35,7.38 -17.05,14.32 -25.94,20.57 -0.15,0.88 -0.15,1.51 -0.29,2.54 88.04,-60.24 131.72,-202.03 102.31,-303.85 -21.3,-64.35 -62.39,-115.46 -113.94,-148.28 -53.6,-30.88 -118.63,-44.12 -186.59,-30.88 -57.6,11.09 -104.51,37.18 -140.13,72.31l126.35 -0.15c-8.94,6.2 -17.45,13.78 -25.11,22.38 -19.98,22.96 -35.33,55.89 -35.33,86.77 0,30.88 24.67,55.7 55.55,55.7 6.2,0 12.07,-0.98 17.59,-2.84l0 130.99c106.46,-0.88 155.81,-12.32 155.81,-149.26 0,-82.08 -37.72,-148.43 -84.24,-148.43 -60.44,0 -88.19,35.42 -97.96,70.3 2.84,-1.13 5.96,-1.13 8.79,-1.13 24.82,0 44.66,19.89 44.66,44.66 0,24.67 -19.89,44.66 -44.66,44.66 -24.82,0 -44.51,-19.98 -44.51,-44.66 0,-46.51 42.5,-123.81 133.73,-123.81 124.05,0 204.03,132.11 146.13,240.48 -45.54,75.24 -139.69,71.04 -217.76,71.04l0.09 155.23c45.68,7.62 93.42,3.71 137.98,-12.17 -38.7,14.32 -78.96,19.59 -118.39,16.32 44.21,4.69 86.62,-1.71 124.93,-16.76l0.15 0.09 0.15 0.03zm6.64 -4.79c0.88,0.29 1.86,0.54 2.84,0.98 14.03,-6.11 27.51,-13.34 40.12,-21.65 0.44,-0.88 0.54,-1.86 0.73,-2.69 -14.03,9.24 -28.63,17.05 -43.68,23.4l0 -0.05 -0.01 0zm72.31 -46.07c-3.57,1.51 -7.82,2.29 -12.9,2.29 -4.98,0 -9.04,-0.15 -12.51,-0.73 0.98,4.69 1.42,8.94 1.42,12.75 0,1.56 0,2.98 -0.15,4.55 8.26,-5.86 16.32,-11.87 24.14,-18.81l0 -0.05zm-304.83 41c-25.36,-12.9 -47.63,-29.22 -66.5,-47.74 18.47,19.45 40.55,36.74 66.5,51.05l0 -3.27 0 -0.05zm0 -4.7l0.29 -402.25 -63.37 -10.46 0 -6.64c-64.25,67.18 -88.73,164.75 -68.79,253.53 12.61,46.96 37.43,90.59 73.58,125.23 17.74,16.32 37.43,29.9 58.29,40.7l0 -0.05 0 -0.05zm-135.68 -296.77c20.67,-84.24 80.13,-159.62 178.48,-193.38 55.99,-19.16 111.45,-19.54 161.77,-5.77 -61.86,-19.16 -130.89,-15.59 -196.22,16.41 -81.2,39.87 -128.16,108.32 -144.04,182.73z"></path>
  <path class="fil0" d="M1224.84 617.96c-10.75,0 -19.45,-3.57 -25.65,-10.46 -6.2,-6.93 -9.33,-16.76 -9.33,-29.07l0 -51.64c0,-12.61 3.13,-22.38 9.24,-29.36 6.2,-6.93 14.9,-10.46 25.8,-10.46 11.09,0 19.69,3.57 25.94,10.46 6.2,6.93 9.33,16.76 9.33,29.36l0 51.64c0,12.32 -3.13,22.09 -9.33,29.07 -6.2,6.93 -14.9,10.46 -25.94,10.46l-0.05 0 -0.01 0zm1819.06 -129.28l-66.1 0 0 10.35 27.51 0 0 114.72 11.09 0 0 -114.72 27.51 0 0 -10.35zm49.15 126.65c19.98,0 34.15,-13.19 34.15,-38.6l0 -88.04 -11.19 0 0 88.04c0,19.25 -9.33,27.95 -22.96,27.95 -13.58,0 -23.06,-8.64 -23.06,-27.95l0 -88.04 -11.09 0 0 88.04c0,25.36 14.17,38.6 34.15,38.6zm114.28 -1.52l12.9 0 -30.78 -49.49c17.15,-3.27 27.51,-17.15 27.51,-38.99 0,-23.25 -12.61,-36.55 -35.77,-36.55l-28.49 0 0 125.03 11.09 0 0 -48.81 13.78 0 29.8 48.81 -0.05 0zm-43.53 -114.72l17.45 0c16.17,0 24.53,9.04 24.53,26.97 0,18.47 -8.35,28.63 -24.67,28.63l-17.3 0 0 -55.55 0 -0.05 -0.01 0zm129.57 114.72l11.77 0 -32.93 -125.03 -12.17 0 -32.93 125.03 11.77 0 7.38 -29.36 39.67 0 7.38 29.36 0.05 0zm-44.51 -39.28l12.75 -51.89c1.95,-7.62 3.81,-16.61 4.44,-19.59l0.29 0c0.54,2.98 2.4,11.87 4.35,19.59l12.75 51.89 -34.59 0 0.01 0zm40.12 -380.51l0 125.03 11.09 0 0 -125.03 -11.09 0zm-59.71 126.65c19.98,0 34.15,-13.19 34.15,-38.6l0 -88.04 -11.09 0 0 88.04c0,19.25 -9.48,27.8 -23.06,27.8 -13.58,0 -22.96,-8.5 -22.96,-27.8l0 -88.04 -11.09 0 0 88.04c0,25.36 14.03,38.6 34,38.6l0.05 0zm-92.3 -10.06c-16.32,0 -24.67,-11.09 -24.67,-30.34l0 -47.49c0,-19.25 8.35,-30.34 24.67,-30.34 16.17,0 24.67,11.09 24.67,30.34l0 47.49c0,9.38 -1.95,16.61 -5.86,21.84l-12.75 -15.59 -7.18 6.2 12.75 15.44c-3.27,1.56 -7.18,2.4 -11.63,2.4l0 0.05zm36.01 12.6l-10.21 -12.32c6.5,-7.28 10.06,-17.74 10.06,-30.64l0 -47.49c0,-25.21 -13.34,-41.09 -35.86,-41.09 -22.52,0 -36.01,15.88 -36.01,41.09l0 47.49c0,25.21 13.48,41.09 36.01,41.09 7.08,0 13.34,-1.56 18.57,-4.69l10.35 12.75 7.08 -6.2 0.01 0zm-143.74 -118.82l17.45 0c16.17,0 24.53,9.04 24.53,26.97 0,18.47 -8.35,28.63 -24.67,28.63l-17.3 0 0 -55.55 0 -0.05 -0.01 0zm43.53 114.72l12.9 0 -30.78 -49.49c17.15,-3.27 27.51,-17.15 27.51,-38.99 0,-23.25 -12.61,-36.55 -35.77,-36.55l-28.49 0 0 125.03 11.09 0 0 -48.81 13.78 0 29.8 48.81 -0.05 0zm-126.64 -39.42l12.9 -51.74c1.95,-7.62 3.71,-16.61 4.25,-19.69l0.29 0c0.54,3.13 2.4,12.07 4.35,19.69l12.75 51.74 -34.59 0 0.05 0 0.01 0zm44.51 39.42l11.77 0 -32.93 -125.03 -12.17 0 -32.93 125.03 11.87 0 7.18 -29.36 39.67 0 7.38 29.36 0.05 0 0.1 0zm40.26 142.33l0 -48.18 44.12 0 0 -10.21 -44.12 0 0 -46.32 47.2 0 0 -10.06 -58.29 0 0 125.03 60.24 0 0 -10.21 -49.15 0 0 -0.05zm-28.04 -114.82l-66.1 0 0 10.35 27.51 0 0 114.72 11.09 0 0 -114.72 27.51 0 0 -10.35zm-1778.06 263.54c8.79,0 15.44,-2.69 19.98,-8.26 4.69,-5.42 7.08,-13.19 7.08,-23.4l0 -51.64c0,-10.35 -2.4,-18.27 -7.08,-23.7 -4.55,-5.52 -11.19,-8.26 -19.98,-8.26 -8.5,0 -15.19,2.69 -19.69,8.26 -4.69,5.42 -7.08,13.34 -7.08,23.7l0 51.64c0,10.21 2.4,18.03 7.08,23.4 4.55,5.52 11.19,8.26 19.69,8.26zm220.89 -1.95l0 7.82 -54.87 0 0 -126.74 8.06 0 0 118.97 46.76 0 0 -0.05 0.05 0zm121.51 -118.97l8.26 0 0 126.74 -8.26 0 0 -126.74zm130.16 0l8.79 0 21.3 86.33 2.54 10.9c0.54,2.4 1.27,5.13 1.95,8.06 0.73,2.98 1.56,6.4 2.54,10.21l0.29 0c0.88,-2.54 2.15,-8.06 4.25,-16.76l2.84 -12.51 21.4 -86.33 8.79 0 -32.49 126.74 -9.68 0 -32.59 -126.74 0 0.05 0.06 0.05zm255.19 119.07l0 7.62 -58.58 0 0 -126.74 57.31 0 0 7.62 -49.15 0 0 50.91 45.78 0 0 7.53 -45.78 0 0 53.06 50.47 0 -0.05 -0.05 0 0.05zm127.08 -119.07l8.26 0 0 126.74 -8.26 0 0 -126.74zm167.44 75.15l-16.86 0 0 51.64 -8.06 0 0 -126.74 27.65 0c11.19,0 19.89,3.13 25.8,9.48 5.96,6.2 8.94,15.34 8.94,27.07 0,11.09 -2.54,19.89 -7.53,26.38 -4.98,6.64 -12.07,10.65 -21.11,11.77l31.07 52.03 -9.48 0 -30.34 -51.64 -0.05 0 -0.05 0.01zm-16.86 -7.63l20.23 0c8.26,0 14.61,-2.54 19.01,-7.82 4.55,-5.22 6.64,-12.9 6.64,-22.72 0,-19.45 -8.79,-29.22 -26.38,-29.22l-19.59 0 0 59.71 0.05 0 0.05 0.05zm229.1 26.78l-42.12 0 -8.35 32.49 -8.7 0 33.47 -126.74 9.24 0 33.47 126.74 -8.7 0 -8.35 -32.49 0.05 0 0.01 0zm-1.95 -7.53l-13.19 -52.03 -5.86 -23.94 -0.15 0 -5.86 23.94 -13.19 52.03 38.16 0 0.09 0z"></path>
 </g>
</svg>
